<svg width="31" height="32" viewBox="0 0 31 32" fill="none" xmlns="http://www.w3.org/2000/svg">
<path d="M23.0359 31.8333H4.65762C3.43907 31.8333 2.27042 31.3329 1.40877 30.4421C0.547119 29.5513 0.0630493 28.3431 0.0630493 27.0833V11.25C0.0630493 9.99023 0.547119 8.78205 1.40877 7.89125C2.27042 7.00045 3.43907 6.50001 4.65762 6.50001H6.18915C6.21491 5.15835 6.6522 3.85983 7.43797 2.79173C8.22374 1.72363 9.31736 0.941157 10.5611 0.557176C11.8048 0.173194 13.1344 0.207548 14.358 0.655283C15.5817 1.10302 16.6361 1.94099 17.3693 3.04834C18.0561 4.06032 18.4299 5.26384 18.4413 6.50001H23.0359C23.4421 6.50001 23.8316 6.66682 24.1189 6.96375C24.4061 7.26069 24.5674 7.66341 24.5674 8.08334V12.8333C25.8652 12.86 27.1212 13.3121 28.1544 14.1244C29.1875 14.9368 29.9444 16.0674 30.3158 17.3532C30.6872 18.639 30.654 20.0135 30.2209 21.2786C29.7878 22.5436 28.9773 23.6337 27.9062 24.3917C26.9273 25.1017 25.7632 25.4882 24.5674 25.5V30.25C24.5674 30.6699 24.4061 31.0727 24.1189 31.3696C23.8316 31.6665 23.4421 31.8333 23.0359 31.8333ZM4.65762 9.66667C4.25144 9.66667 3.86189 9.83349 3.57467 10.1304C3.28745 10.4274 3.1261 10.8301 3.1261 11.25V27.0833C3.1261 27.5033 3.28745 27.906 3.57467 28.2029C3.86189 28.4999 4.25144 28.6667 4.65762 28.6667H21.5044V23.6317C21.5031 23.3778 21.5608 23.1273 21.6728 22.9014C21.7847 22.6754 21.9476 22.4806 22.1476 22.3333C22.3471 22.1863 22.5777 22.0909 22.8202 22.0551C23.0627 22.0192 23.31 22.0441 23.5413 22.1275C23.9778 22.3116 24.4531 22.3748 24.9205 22.311C25.3878 22.2471 25.8309 22.0583 26.2062 21.7633C26.5796 21.5279 26.9 21.2125 27.1457 20.8383C27.3913 20.4641 27.5567 20.0399 27.6305 19.5942C27.6895 19.1446 27.6545 18.6871 27.5276 18.2528C27.4008 17.8185 27.1852 17.4174 26.8954 17.0767C26.5034 16.5844 25.9696 16.2345 25.3718 16.0778C24.774 15.9212 24.1434 15.966 23.5719 16.2058C23.3407 16.2893 23.0934 16.3141 22.8509 16.2783C22.6084 16.2425 22.3777 16.147 22.1783 16C21.9782 15.8528 21.8153 15.6579 21.7034 15.432C21.5914 15.206 21.5337 14.9555 21.535 14.7017V9.66667H16.6341C16.3824 9.68142 16.1311 9.6317 15.9024 9.52193C15.6738 9.41215 15.4749 9.24572 15.3234 9.0374C15.1719 8.82908 15.0724 8.58531 15.0339 8.32773C14.9954 8.07015 15.019 7.80673 15.1026 7.56084C15.2807 7.1096 15.3418 6.61816 15.2801 6.13502C15.2183 5.65188 15.0357 5.19375 14.7504 4.80584C14.5242 4.40868 14.2146 4.06922 13.8443 3.8126C13.474 3.55599 13.0527 3.38879 12.6114 3.3234C12.1702 3.25802 11.7203 3.29611 11.2952 3.43488C10.8702 3.57364 10.4807 3.80951 10.1558 4.12501C9.85405 4.43441 9.61788 4.80535 9.46232 5.21423C9.30675 5.62311 9.2352 6.06099 9.25219 6.50001C9.25574 6.86318 9.32321 7.22265 9.45129 7.56084C9.53226 7.80027 9.5564 8.0563 9.52169 8.30739C9.48698 8.55848 9.39443 8.79727 9.25182 9.00366C9.10922 9.21006 8.92075 9.37801 8.70226 9.49339C8.48378 9.60877 8.24168 9.6682 7.99634 9.66667H4.65762Z" fill="white"/>
</svg>
